<svg width="40" height="40" viewBox="0 0 40 40" fill="none" xmlns="http://www.w3.org/2000/svg">
<g id="Linear / Video, Audio, Sound / Gallery Download">
<path id="Vector" d="M36.6673 20C36.6673 27.8567 36.6673 31.7851 34.2265 34.2259C31.7858 36.6667 27.8574 36.6667 20.0007 36.6667C12.1439 36.6667 8.21554 36.6667 5.77476 34.2259C3.33398 31.7851 3.33398 27.8567 3.33398 20C3.33398 12.1433 3.33398 8.21489 5.77476 5.77411C8.21554 3.33334 12.1439 3.33334 20.0007 3.33334" stroke="#434343" stroke-width="2.5" stroke-linecap="round"/>
<path id="Vector_2" d="M3.33398 20.8336L6.25329 18.2792C7.77208 16.9503 10.0611 17.0265 11.4881 18.4535L18.6377 25.603C19.7831 26.7484 21.5861 26.9046 22.9113 25.9732L23.4083 25.6239C25.3154 24.2837 27.8955 24.439 29.6281 25.9983L35.0007 30.8336" stroke="#434343" stroke-width="2.5" stroke-linecap="round"/>
<path id="Vector_3" d="M28.334 18.3333V3.33334M28.334 18.3333L33.334 13.3333M28.334 18.3333L23.334 13.3333" stroke="#434343" stroke-width="2.5" stroke-linecap="round" stroke-linejoin="round"/>
</g>
</svg>
