<svg width="20" height="20" viewBox="0 0 20 20" fill="none" xmlns="http://www.w3.org/2000/svg">
<path fullRule="evenodd" clipRule="evenodd" d="M19.6 10.2273C19.6 9.51819 19.5364 8.83637 19.4182 8.18182H10V12.05H15.3818C15.15 13.3 14.4455 14.3591 13.3864 15.0682V17.5773H16.6182C18.5091 15.8364 19.6 13.2727 19.6 10.2273Z" fill="#4285F4"/>
<path fullRule="evenodd" clipRule="evenodd" d="M9.99984 20C12.6998 20 14.9635 19.1045 16.618 17.5772L13.3862 15.0681C12.4907 15.6681 11.3453 16.0227 9.99984 16.0227C7.39529 16.0227 5.19075 14.2636 4.40439 11.9H1.06348V14.4909C2.70893 17.7591 6.09075 20 9.99984 20Z" fill="#34A853"/>
<path fullRule="evenodd" clipRule="evenodd" d="M4.40455 11.8999C4.20455 11.2999 4.09091 10.659 4.09091 9.99994C4.09091 9.34085 4.20455 8.69994 4.40455 8.09994V5.50903H1.06364C0.386364 6.85903 0 8.38631 0 9.99994C0 11.6136 0.386364 13.1409 1.06364 14.4909L4.40455 11.8999Z" fill="#FBBC05"/>
<path fullRule="evenodd" clipRule="evenodd" d="M9.99984 3.97727C11.468 3.97727 12.7862 4.48182 13.8226 5.47273L16.6907 2.60455C14.9589 0.990909 12.6953 0 9.99984 0C6.09075 0 2.70893 2.24091 1.06348 5.50909L4.40439 8.1C5.19075 5.73636 7.39529 3.97727 9.99984 3.97727Z" fill="#EA4335"/>
</svg>
