<svg width="81" height="80" viewBox="0 0 81 80" fill="none" xmlns="http://www.w3.org/2000/svg">
<path d="M68.1152 56.027H12.3838V21.0486C12.3838 19.7542 13.4332 18.7048 14.7275 18.7048H65.7714C67.066 18.7048 68.1152 19.7542 68.1152 21.0486V56.027Z" fill="#21315F"/>
<path d="M64.8232 21.9975H15.6768V52.7344H64.8232V21.9975Z" fill="white"/>
<path opacity="0.2" d="M15.6768 21.9975V52.7344H64.8232V21.9975H15.6768ZM63.1769 51.0883H17.3232V23.6437H63.1771V51.0883H63.1769Z" fill="#21315F"/>
<path d="M72.1124 60.7287C71.4657 61.0998 70.7332 61.2951 69.9876 61.2951H10.512C9.76652 61.2951 9.03387 61.0998 8.38715 60.7287C7.59543 60.2743 7.05762 58.9486 7.05762 57.4506V56.0272H73.442V57.4506C73.442 58.9486 72.9042 60.2743 72.1124 60.7287Z" fill="#3E465F"/>
<path d="M44.9727 58.6612H35.5271C35.0682 58.6612 34.6963 58.2892 34.6963 57.8303V56.0272H45.8038V57.8303C45.8036 58.2892 45.4316 58.6612 44.9727 58.6612Z" fill="#2E3547"/>
<path d="M70.1459 42.9169C69.8964 42.9169 69.6514 42.7976 69.5001 42.5762C69.2566 42.22 69.3481 41.7337 69.7044 41.4905L75.7401 37.3659L69.7044 33.2416C69.3483 32.9981 69.2567 32.512 69.5001 32.1558C69.7434 31.7997 70.2295 31.7081 70.5859 31.9514L77.5656 36.7209C77.7786 36.8666 77.9061 37.108 77.9061 37.3659C77.9061 37.6239 77.7787 37.8653 77.5656 38.0109L70.5859 42.7803C70.4511 42.8726 70.2978 42.9169 70.1459 42.9169Z" fill="#2BABAA"/>
<path d="M10.3539 42.9169C10.202 42.9169 10.0487 42.8727 9.91391 42.7805L2.93422 38.0111C2.72125 37.8655 2.59375 37.6241 2.59375 37.3661C2.59375 37.1081 2.72109 36.8667 2.93422 36.7211L9.91391 31.9516C10.2705 31.7083 10.7566 31.7997 10.9997 32.1559C11.2433 32.5122 11.1517 32.9983 10.7955 33.2417L4.75969 37.3661L10.7955 41.4906C11.1516 41.7341 11.2431 42.2202 10.9997 42.5764C10.8484 42.7975 10.6034 42.9169 10.3539 42.9169Z" fill="#2BABAA"/>
<path d="M59.783 28.3647H36.5358C36.5311 28.3647 36.5264 28.3653 36.5217 28.3653H20.6155C19.7064 28.3653 18.9692 29.1023 18.9692 30.0116V44.72C18.9692 45.6292 19.7064 46.3664 20.6155 46.3664H36.5302C36.5322 46.3664 36.5339 46.3667 36.536 46.3667H59.783C60.6935 46.3667 61.4294 45.6291 61.4294 44.7203V30.0109C61.4294 29.1022 60.6935 28.3647 59.783 28.3647Z" fill="#4E73DE"/>
<path d="M58.6765 28.3647H21.8389V46.3669H58.6765V28.3647Z" fill="#3C59AB"/>
<path d="M55.4519 48.7364H25.0479C24.1849 48.7364 23.4854 48.0367 23.4854 47.1739V27.558C23.4854 26.6952 24.1849 25.9955 25.0479 25.9955H55.4519C56.3149 25.9955 57.0144 26.6952 57.0144 27.558V47.1739C57.0144 48.0369 56.3149 48.7364 55.4519 48.7364Z" fill="#94A9E3"/>
<path d="M40.2717 44.2358H27.9136C27.0542 44.2358 26.3511 43.5327 26.3511 42.6733V32.0585C26.3511 31.1991 27.0542 30.496 27.9136 30.496H40.2717C41.1311 30.496 41.8342 31.1991 41.8342 32.0585V42.6733C41.8342 43.5327 41.1311 44.2358 40.2717 44.2358Z" fill="white"/>
<path d="M54.1486 34.3494H44.269C43.8375 34.3494 43.4878 33.9995 43.4878 33.5681C43.4878 33.1367 43.8375 32.7869 44.269 32.7869H54.1486C54.5801 32.7869 54.9298 33.1367 54.9298 33.5681C54.9298 33.9995 54.5801 34.3494 54.1486 34.3494Z" fill="white"/>
<path d="M54.1486 38.1472H44.269C43.8375 38.1472 43.4878 37.7974 43.4878 37.366C43.4878 36.9346 43.8375 36.5847 44.269 36.5847H54.1486C54.5801 36.5847 54.9298 36.9346 54.9298 37.366C54.9298 37.7974 54.5801 38.1472 54.1486 38.1472Z" fill="white"/>
<path d="M54.1486 41.9449H44.269C43.8375 41.9449 43.4878 41.5952 43.4878 41.1636C43.4878 40.7322 43.8375 40.3824 44.269 40.3824H54.1486C54.5801 40.3824 54.9298 40.7322 54.9298 41.1636C54.9298 41.5952 54.5801 41.9449 54.1486 41.9449Z" fill="white"/>
</svg>
