<svg width="80" height="80" viewBox="0 0 80 80" fill="none" xmlns="http://www.w3.org/2000/svg">
<path d="M16.4555 25.9649C20.6713 25.9649 24.0888 22.5474 24.0888 18.3316C24.0888 14.1159 20.6713 10.6984 16.4555 10.6984C12.2398 10.6984 8.82227 14.1159 8.82227 18.3316C8.82227 22.5474 12.2398 25.9649 16.4555 25.9649Z" fill="#EBC847"/>
<path d="M17.0435 14.5321L17.8787 16.2242C17.974 16.4176 18.1585 16.5517 18.372 16.5826L20.2393 16.854C20.7766 16.9321 20.9913 17.5928 20.6024 17.9717L19.2513 19.2889C19.097 19.4395 19.0265 19.6564 19.0629 19.869L19.3818 21.7287C19.4737 22.264 18.9116 22.6723 18.431 22.4195L16.7609 21.5415C16.5699 21.4411 16.3418 21.4411 16.151 21.5415L14.481 22.4195C14.0001 22.6723 13.4382 22.264 13.5301 21.7287L13.849 19.869C13.8854 19.6564 13.8149 19.4395 13.6605 19.2889L12.3095 17.9717C11.9205 17.5926 12.1351 16.9321 12.6726 16.854L14.5399 16.5826C14.7532 16.5517 14.9379 16.4176 15.0332 16.2242L15.8684 14.5321C16.1085 14.0451 16.8032 14.0451 17.0435 14.5321Z" fill="white"/>
<path d="M68.7208 25.965H31.4224C30.0657 25.965 28.9658 24.8651 28.9658 23.5084V21.8707C28.9658 20.514 30.0657 19.4142 31.4224 19.4142H68.7207C70.0775 19.4142 71.1774 20.514 71.1774 21.8707V23.5084C71.1774 24.8651 70.0775 25.965 68.7208 25.965Z" fill="#EBC847"/>
<path d="M34.1924 10.9917L34.8632 12.3508C34.9398 12.5061 35.0879 12.6139 35.2595 12.6387L36.7593 12.8569C37.1912 12.9195 37.3635 13.4501 37.051 13.7547L35.9656 14.8125C35.8417 14.9333 35.7851 15.1076 35.8142 15.2783L36.0706 16.7722C36.1443 17.2022 35.6929 17.5301 35.3067 17.3272L33.9651 16.6219C33.812 16.5411 33.6287 16.5411 33.4753 16.6219L32.1337 17.3272C31.7474 17.5301 31.2964 17.2022 31.3699 16.7722L31.6262 15.2783C31.6556 15.1075 31.5989 14.9333 31.4748 14.8125L30.3895 13.7545C30.0771 13.45 30.2495 12.9194 30.6812 12.8567L32.181 12.6386C32.3526 12.6137 32.5009 12.5059 32.5774 12.3506L33.2482 10.9915C33.4414 10.6004 33.9992 10.6004 34.1924 10.9917Z" fill="#EBC847"/>
<path d="M42.8105 10.9918L43.4812 12.3509C43.5578 12.5062 43.7061 12.614 43.8776 12.6388L45.3773 12.857C45.8092 12.9196 45.9815 13.4502 45.669 13.7548L44.5839 14.8127C44.46 14.9335 44.4033 15.1079 44.4325 15.2785L44.6889 16.7724C44.7625 17.2024 44.3111 17.5304 43.925 17.3274L42.5834 16.6221C42.43 16.5413 42.2469 16.5413 42.0936 16.6221L40.752 17.3274C40.3659 17.5304 39.9144 17.2024 39.9883 16.7724L40.2445 15.2785C40.2739 15.1077 40.217 14.9335 40.0931 14.8127L39.0076 13.7548C38.6953 13.4502 38.8676 12.9196 39.2994 12.857L40.7992 12.6388C40.9708 12.614 41.1187 12.5062 41.1956 12.3509L41.8664 10.9918C42.0595 10.6006 42.6173 10.6006 42.8105 10.9918Z" fill="#EBC847"/>
<path d="M51.4292 10.9918L52.1 12.3509C52.1765 12.5062 52.3248 12.614 52.4961 12.6388L53.9961 12.857C54.4279 12.9196 54.6003 13.4502 54.2878 13.7548L53.2026 14.8127C53.0784 14.9335 53.022 15.1079 53.0512 15.2785L53.3073 16.7724C53.3812 17.2024 52.9298 17.5304 52.5437 17.3274L51.2021 16.6221C51.0487 16.5413 50.8656 16.5413 50.712 16.6221L49.3704 17.3274C48.9843 17.5304 48.5331 17.2024 48.6068 16.7724L48.8629 15.2785C48.8923 15.1077 48.8357 14.9335 48.7115 14.8127L47.6264 13.7548C47.3139 13.4502 47.4864 12.9196 47.9181 12.857L49.4181 12.6388C49.5893 12.614 49.7376 12.5062 49.8142 12.3509L50.485 10.9918C50.6782 10.6006 51.2361 10.6006 51.4292 10.9918Z" fill="#EBC847"/>
<path d="M16.4347 32.848C13.7331 32.848 11.5347 35.0464 11.5347 37.748V39.2334C11.5833 39.2272 11.6317 39.2241 11.6815 39.2241H13.0972V37.748C13.0972 35.9073 14.594 34.4105 16.4347 34.4105C18.2753 34.4105 19.7737 35.9073 19.7737 37.748V39.2241H21.1878C21.2378 39.2241 21.2879 39.2272 21.3362 39.2334V37.748C21.3362 35.0464 19.1378 32.848 16.4347 32.848Z" fill="#EBC847"/>
<path d="M22.4188 40.2714V46.698C22.4188 47.9447 21.4079 48.9558 20.1596 48.9558H12.7095C11.4628 48.9558 10.4517 47.9447 10.4517 46.698V40.2714C10.4517 39.6417 10.9251 39.1228 11.5345 39.0509C11.5831 39.0447 11.6315 39.0416 11.6813 39.0416H21.1876C21.2376 39.0416 21.2878 39.0447 21.336 39.0509C21.9456 39.123 22.4188 39.6417 22.4188 40.2714Z" fill="#4E73DE"/>
<path d="M16.8923 41.5456L17.4315 42.6381C17.4932 42.7631 17.6123 42.8497 17.7501 42.8697L18.9559 43.0449C19.3029 43.0952 19.4415 43.5219 19.1904 43.7666L18.3179 44.6171C18.2182 44.7142 18.1726 44.8544 18.1963 44.9914L18.4023 46.1924C18.4615 46.5381 18.0987 46.8017 17.7881 46.6385L16.7098 46.0714C16.5865 46.0067 16.4391 46.0067 16.3159 46.0714L15.2376 46.6385C14.9271 46.8017 14.5641 46.538 14.6235 46.1924L14.8295 44.9914C14.8529 44.8542 14.8074 44.7142 14.7077 44.6171L13.8352 43.7666C13.5841 43.5219 13.7227 43.0952 14.0698 43.0449L15.2756 42.8697C15.4135 42.8496 15.5326 42.763 15.5941 42.6381L16.1334 41.5456C16.2885 41.231 16.7371 41.231 16.8923 41.5456Z" fill="white"/>
<path d="M71.1776 44.8015V46.4392C71.1776 47.7951 70.0771 48.8956 68.7208 48.8956H31.423C30.0654 48.8956 28.9663 47.7951 28.9663 46.4392V44.8015C28.9663 43.4454 30.0652 42.345 31.423 42.345H68.721C70.0771 42.3451 71.1776 43.4456 71.1776 44.8015Z" fill="#E6EBF2"/>
<path d="M34.1923 33.9227L34.8631 35.2816C34.9396 35.437 35.0878 35.5447 35.2593 35.5697L36.7592 35.7877C37.191 35.8503 37.3634 36.3809 37.0509 36.6855L35.9656 37.7434C35.8417 37.8644 35.7851 38.0387 35.8142 38.2094L36.0706 39.7033C36.1443 40.1333 35.6929 40.4612 35.3067 40.2581L33.9651 39.5528C33.812 39.4722 33.6287 39.4722 33.4753 39.5528L32.1337 40.2581C31.7474 40.4612 31.2964 40.1333 31.3699 39.7033L31.6262 38.2094C31.6556 38.0386 31.5989 37.8644 31.4748 37.7434L30.3895 36.6855C30.0771 36.3809 30.2495 35.8503 30.6812 35.7877L32.181 35.5697C32.3526 35.5447 32.5009 35.437 32.5774 35.2816L33.2482 33.9227C33.4412 33.5316 33.999 33.5316 34.1923 33.9227Z" fill="#EBC847"/>
<path d="M42.8105 33.9227L43.4812 35.2816C43.5578 35.437 43.7061 35.5447 43.8776 35.5697L45.3773 35.7877C45.8092 35.8503 45.9815 36.3809 45.669 36.6855L44.5839 37.7434C44.46 37.8644 44.4033 38.0387 44.4325 38.2094L44.6889 39.7033C44.7625 40.1333 44.3111 40.4612 43.925 40.2581L42.5834 39.5528C42.43 39.4722 42.2469 39.4722 42.0936 39.5528L40.752 40.2581C40.3659 40.4612 39.9144 40.1333 39.9883 39.7033L40.2445 38.2094C40.2739 38.0386 40.217 37.8644 40.0931 37.7434L39.0076 36.6855C38.6953 36.3809 38.8676 35.8503 39.2994 35.7877L40.7992 35.5697C40.9708 35.5447 41.1187 35.437 41.1956 35.2816L41.8664 33.9227C42.0595 33.5316 42.6173 33.5316 42.8105 33.9227Z" fill="#EBC847"/>
<path d="M50.071 42.3451V48.8958H31.423C30.0654 48.8958 28.9663 47.7953 28.9663 46.4393V44.8015C28.9663 43.4454 30.0652 42.345 31.423 42.345H50.071V42.3451Z" fill="#2BABAA"/>
<path d="M16.4347 53.1937C13.7331 53.1937 11.5347 55.3922 11.5347 58.0937V59.5792C11.5833 59.5729 11.6317 59.5698 11.6815 59.5698H13.0972V58.0937C13.0972 56.2531 14.594 54.7562 16.4347 54.7562C18.2753 54.7562 19.7737 56.2531 19.7737 58.0937V59.5698H21.1878C21.2378 59.5698 21.2879 59.5729 21.3362 59.5792V58.0937C21.3362 55.3923 19.1378 53.1937 16.4347 53.1937Z" fill="#EBC847"/>
<path d="M22.4188 60.6173V67.0439C22.4188 68.2907 21.4079 69.3017 20.1596 69.3017H12.7095C11.4628 69.3017 10.4517 68.2907 10.4517 67.0439V60.6173C10.4517 59.9876 10.9251 59.4687 11.5345 59.3968C11.5831 59.3906 11.6315 59.3875 11.6813 59.3875H21.1876C21.2376 59.3875 21.2878 59.3906 21.336 59.3968C21.9456 59.4689 22.4188 59.9876 22.4188 60.6173Z" fill="#4E73DE"/>
<path d="M16.8923 61.8914L17.4315 62.984C17.4932 63.1089 17.6123 63.1954 17.7501 63.2153L18.9559 63.3906C19.3029 63.4409 19.4415 63.8675 19.1904 64.1123L18.3179 64.9628C18.2182 65.06 18.1726 65.2001 18.1963 65.3373L18.4023 66.5382C18.4615 66.8839 18.0987 67.1475 17.7881 66.9842L16.7098 66.4171C16.5865 66.3523 16.4391 66.3523 16.3159 66.4171L15.2376 66.9842C14.9271 67.1475 14.5641 66.8837 14.6235 66.5382L14.8295 65.3373C14.8529 65.2 14.8074 65.06 14.7077 64.9628L13.8352 64.1123C13.5841 63.8675 13.7227 63.4409 14.0698 63.3906L15.2756 63.2153C15.4135 63.1953 15.5326 63.1087 15.5941 62.984L16.1334 61.8914C16.2885 61.577 16.7371 61.577 16.8923 61.8914Z" fill="white"/>
<path d="M71.1776 65.1475V66.785C71.1776 68.1409 70.0771 69.2415 68.7208 69.2415H31.423C30.0654 69.2415 28.9663 68.1409 28.9663 66.785V65.1475C28.9663 63.7912 30.0652 62.6907 31.423 62.6907H68.721C70.0771 62.6909 71.1776 63.7914 71.1776 65.1475Z" fill="#E6EBF2"/>
<path d="M34.1923 54.2686L34.8631 55.6275C34.9396 55.7828 35.0878 55.8906 35.2593 55.9156L36.7592 56.1336C37.191 56.1963 37.3634 56.7269 37.0509 57.0314L35.9656 58.0894C35.8417 58.2103 35.7851 58.3847 35.8142 58.5552L36.0706 60.0491C36.1443 60.4791 35.6929 60.8072 35.3067 60.6041L33.9651 59.8988C33.812 59.818 33.6287 59.818 33.4753 59.8988L32.1337 60.6041C31.7474 60.8072 31.2964 60.4791 31.3699 60.0491L31.6262 58.5552C31.6556 58.3845 31.5989 58.2103 31.4748 58.0894L30.3895 57.0314C30.0771 56.7269 30.2495 56.1963 30.6812 56.1336L32.181 55.9156C32.3526 55.8906 32.5009 55.7828 32.5774 55.6275L33.2482 54.2686C33.4412 53.8773 33.999 53.8773 34.1923 54.2686Z" fill="#EBC847"/>
<path d="M39.5188 62.6909V69.2417H31.423C30.0654 69.2417 28.9663 68.1411 28.9663 66.7851V65.1476C28.9663 63.7914 30.0652 62.6909 31.423 62.6909H39.5188Z" fill="#E67445"/>
</svg>
