<svg width="80" height="80" viewBox="0 0 80 80" fill="none" xmlns="http://www.w3.org/2000/svg">
<path d="M68.7242 60.5106H11.2759C6.77422 60.5106 3.125 56.8613 3.125 52.3597V27.6403C3.125 23.1386 6.77422 19.4894 11.2759 19.4894H68.7241C73.2258 19.4894 76.875 23.1386 76.875 27.6403V52.3598C76.875 56.8613 73.2258 60.5106 68.7242 60.5106Z" fill="#3E465F"/>
<path d="M74.6043 27.5678V52.4322C74.6043 55.7211 71.9382 58.387 68.6494 58.387H11.351C8.06225 58.387 5.396 55.7209 5.396 52.4322V27.5678C5.396 24.279 8.06209 21.6128 11.351 21.6128H68.6493C71.938 21.6128 74.6043 24.279 74.6043 27.5678Z" fill="#21315F"/>
<path d="M68.5743 56.2638H11.4256C9.34947 56.2638 7.6665 54.5808 7.6665 52.5047V27.4955C7.6665 25.4194 9.34947 23.7363 11.4257 23.7363H68.5742C70.6503 23.7363 72.3334 25.4194 72.3334 27.4955V52.5047C72.3334 54.5806 70.6504 56.2638 68.5743 56.2638Z" fill="white"/>
<path d="M69.0869 48.205C68.8711 48.205 68.6963 48.0301 68.6963 47.8144V32.1856C68.6963 31.9698 68.8711 31.795 69.0869 31.795C69.3027 31.795 69.4775 31.9698 69.4775 32.1856V47.8144C69.4775 48.0301 69.3027 48.205 69.0869 48.205Z" fill="#21315F"/>
<path d="M52.1239 44.0378L52.1165 46.5852C52.1115 48.3717 50.9376 50.1556 48.592 51.5186C43.8694 54.263 36.1879 54.2625 31.4353 51.5186C29.0439 50.138 27.8495 48.3255 27.8545 46.5158L27.8617 43.9684C27.8565 45.7781 29.0509 47.5905 31.4425 48.9713C36.1951 51.7152 43.8765 51.7156 48.5992 48.9711C50.9448 47.608 52.1187 45.8242 52.1239 44.0378Z" fill="#F9A643"/>
<path d="M48.5425 39.0337C53.295 41.7778 53.3211 46.227 48.5993 48.9711C43.8765 51.7156 36.1951 51.7151 31.4426 48.9712C26.69 46.2272 26.665 41.7786 31.3876 39.0339C36.1093 36.29 43.7898 36.29 48.5425 39.0337Z" fill="#EBC847"/>
<path d="M29.2944 33.1966C28.863 33.1966 28.5132 32.8467 28.5132 32.4153V28.7128C28.5132 28.2814 28.863 27.9316 29.2944 27.9316H32.9849C33.4163 27.9316 33.7662 28.2814 33.7662 28.7128C33.7662 29.1442 33.4163 29.4941 32.9849 29.4941H30.0757V32.4153C30.0757 32.8467 29.726 33.1966 29.2944 33.1966Z" fill="#2BABAA"/>
<path d="M33.0318 50.9011H29.2944C28.863 50.9011 28.5132 50.5513 28.5132 50.1199V46.4103C28.5132 45.9788 28.863 45.6291 29.2944 45.6291C29.7258 45.6291 30.0757 45.9788 30.0757 46.4103V49.3386H33.0318C33.4632 49.3386 33.813 49.6885 33.813 50.1199C33.813 50.5513 33.4632 50.9011 33.0318 50.9011Z" fill="#2BABAA"/>
<path d="M50.7014 50.9011H46.999C46.5675 50.9011 46.2178 50.5513 46.2178 50.1199C46.2178 49.6885 46.5675 49.3386 46.999 49.3386H49.9201V46.4103C49.9201 45.9788 50.2698 45.6291 50.7014 45.6291C51.1329 45.6291 51.4826 45.9788 51.4826 46.4103V50.1199C51.4826 50.5511 51.1329 50.9011 50.7014 50.9011Z" fill="#2BABAA"/>
<path d="M50.7014 33.1966C50.2699 33.1966 49.9202 32.8467 49.9202 32.4153V29.4941H46.9697C46.5382 29.4941 46.1885 29.1442 46.1885 28.7128C46.1885 28.2814 46.5382 27.9316 46.9697 27.9316H50.7014C51.133 27.9316 51.4827 28.2814 51.4827 28.7128V32.4153C51.4827 32.8467 51.133 33.1966 50.7014 33.1966Z" fill="#2BABAA"/>
<path d="M40.0088 39.4442L39.9889 46.4102L33.9268 42.9102L33.9466 35.9442L40.0088 39.4442Z" fill="#678FFF"/>
<path d="M40.0086 39.4442L46.0691 35.9224L46.0492 42.8881L39.9888 46.4102L40.0086 39.4442Z" fill="#8CABFF"/>
<path d="M33.9468 35.9442L40.0072 32.4224L46.0694 35.9224L40.009 39.4442L33.9468 35.9442Z" fill="#7DA0EF"/>
<path d="M29.0274 39.1375C28.8274 39.1375 28.6276 39.0612 28.4749 38.9087L25.4871 35.9209H20.1548C19.7234 35.9209 19.3735 35.5711 19.3735 35.1396C19.3735 34.7082 19.7234 34.3584 20.1548 34.3584H25.8109C26.0181 34.3584 26.2168 34.4407 26.3634 34.5871L29.5799 37.8037C29.8851 38.1089 29.8851 38.6036 29.5799 38.9086C29.4273 39.0612 29.2274 39.1375 29.0274 39.1375Z" fill="#42424C"/>
<path d="M21.654 39.397H12.017C11.5515 39.397 11.1743 39.0197 11.1743 38.5544V31.725C11.1743 31.2597 11.5515 30.8823 12.017 30.8823H21.654C22.1193 30.8823 22.4965 31.2597 22.4965 31.725V38.5544C22.4967 39.0197 22.1193 39.397 21.654 39.397Z" fill="#3E465F"/>
<path d="M20.1544 34.1514H13.5161C13.0847 34.1514 12.7349 33.8015 12.7349 33.3701C12.7349 32.9387 13.0847 32.5889 13.5161 32.5889H20.1544C20.5858 32.5889 20.9356 32.9387 20.9356 33.3701C20.9356 33.8015 20.5858 34.1514 20.1544 34.1514Z" fill="white"/>
<path d="M16.5914 37.0161H13.5161C13.0847 37.0161 12.7349 36.6662 12.7349 36.2348C12.7349 35.8034 13.0847 35.4536 13.5161 35.4536H16.5914C17.0228 35.4536 17.3727 35.8034 17.3727 36.2348C17.3727 36.6662 17.0228 37.0161 16.5914 37.0161Z" fill="white"/>
<path d="M63.0389 48.2056H56.4771C56.0455 48.2056 55.6958 47.8559 55.6958 47.4244C55.6958 46.993 56.0455 46.6431 56.4771 46.6431H63.0389C63.4705 46.6431 63.8202 46.993 63.8202 47.4244C63.8202 47.8558 63.4705 48.2056 63.0389 48.2056Z" fill="#3E465F"/>
<path d="M65.7286 50.9019H56.4771C56.0455 50.9019 55.6958 50.552 55.6958 50.1206C55.6958 49.6892 56.0455 49.3394 56.4771 49.3394H65.7286C66.1602 49.3394 66.5099 49.6892 66.5099 50.1206C66.5099 50.552 66.1602 50.9019 65.7286 50.9019Z" fill="#3E465F"/>
</svg>
