<svg width="81" height="80" viewBox="0 0 81 80" fill="none" xmlns="http://www.w3.org/2000/svg">
<path d="M57.9909 16.7172L56.2441 30.4406H55.0894V25.9094C55.0894 24.3672 54.8503 22.8781 54.4081 21.4781H37.5864C33.8817 21.4781 30.5411 19.9094 28.1956 17.4C26.4909 19.8109 25.4862 22.7484 25.4862 25.9094V30.4406H24.2566L22.5097 16.7172C22.2456 14.6359 23.2316 12.6953 25.0064 11.2656C24.8286 10.4141 24.7348 9.53125 24.7348 8.62656V6.08594C24.7348 4.45 26.0612 3.125 27.6956 3.125H41.5612C47.0316 3.125 51.8097 6.08594 54.38 10.4938C56.8395 11.95 58.3083 14.2328 57.9909 16.7172Z" fill="#21315F"/>
<path d="M64.1531 76.0061V76.875H16.4204V76.0061C16.4204 75.6875 16.4267 75.3609 16.4407 75.042C16.4548 74.75 16.4673 74.4515 16.4876 74.1593C16.5079 73.8892 16.536 73.6233 16.5704 73.3593C16.5907 73.1281 16.6235 72.8968 16.6579 72.6672C16.6579 72.6047 16.672 72.5515 16.6782 72.4904C16.7128 72.2733 16.7456 72.0625 16.7876 71.8453C16.8001 71.7562 16.8142 71.6748 16.8282 71.5875C16.861 71.425 16.8956 71.2609 16.9298 71.0983C16.9704 70.8953 17.011 70.6982 17.0579 70.5015C17.072 70.4328 17.0923 70.3656 17.1063 70.3047C17.147 70.1342 17.1938 69.9578 17.2423 69.789C17.2829 69.6389 17.3235 69.489 17.3642 69.3404C17.6829 68.2343 18.0829 67.1687 18.5517 66.1437C18.6673 65.8922 18.7892 65.6404 18.911 65.3968C19.0345 65.1515 19.1563 64.9078 19.2923 64.664C19.414 64.4329 19.5423 64.2017 19.6782 63.9781C19.6782 63.964 19.686 63.9498 19.6985 63.9437C19.8345 63.7125 19.9767 63.4828 20.1204 63.2515C20.2343 63.0748 20.3501 62.8983 20.4657 62.7217C20.961 61.9826 21.4985 61.2686 22.0751 60.5967C22.2376 60.3934 22.4142 60.1965 22.5907 60.0061C23.1673 59.3686 23.7784 58.7576 24.4235 58.1873C24.647 57.9904 24.872 57.7934 25.1017 57.6045C25.3329 57.4139 25.5704 57.2309 25.8081 57.0467C26.0456 56.8639 26.2831 56.6873 26.5282 56.517C26.7721 56.3404 27.0235 56.1717 27.2751 56.0092C27.5188 55.8529 27.7626 55.6967 28.014 55.5467C28.0282 55.5404 28.0407 55.5326 28.0485 55.5264C28.2454 55.4108 28.4345 55.2953 28.6312 55.1936C28.9923 54.9842 29.3578 54.7934 29.7249 54.6108C30.4984 54.2297 31.2999 53.8842 32.1203 53.5858C33.2954 53.1576 34.2796 52.4045 34.9781 51.434C35.4796 50.7529 35.8359 49.9747 36.0203 49.1403C29.9423 47.2981 25.4859 41.6293 25.4859 34.97V25.909C25.4859 22.7481 26.4906 19.8106 28.1953 17.3997C30.5407 19.909 33.8813 21.4778 37.586 21.4778H54.4078C54.8499 22.8778 55.089 24.3668 55.089 25.909V34.97C55.089 41.6278 50.6342 47.2948 44.5593 49.1387C44.7437 49.9747 45.0982 50.7528 45.5951 51.4339C46.3015 52.4043 47.2857 53.1573 48.4531 53.5856C49.2734 53.8839 50.0749 54.2293 50.8484 54.6106C51.2156 54.7934 51.5826 54.9842 51.9421 55.1934C52.139 55.295 52.3281 55.4106 52.5248 55.5262C52.5326 55.5325 52.5451 55.5403 52.5592 55.5465C52.8107 55.6965 53.0545 55.8528 53.2998 56.009C53.5498 56.1715 53.8013 56.3403 54.0467 56.5168C54.2904 56.6872 54.5279 56.8637 54.7654 57.0465C55.0031 57.2309 55.2404 57.4139 55.4718 57.6043C55.7029 57.7934 55.9265 57.9904 56.1499 58.1872C56.7953 58.7573 57.4062 59.3684 57.9828 60.0059C58.1592 60.1965 58.3359 60.3932 58.4982 60.5965C59.0765 61.2684 59.6124 61.9823 60.1078 62.7215C60.2234 62.8981 60.339 63.0747 60.4546 63.2514C60.5968 63.4825 60.739 63.7122 60.8749 63.9436C60.889 63.9497 60.8953 63.9639 60.8953 63.9779C61.0312 64.2015 61.1593 64.4326 61.2826 64.6639C61.417 64.9078 61.5404 65.1514 61.6623 65.3967C61.7843 65.6404 61.9062 65.892 62.0218 66.1436C62.4906 67.1686 62.8906 68.2342 63.2093 69.3403C63.2499 69.4889 63.2906 69.6387 63.3328 69.7889C63.3796 69.9576 63.4267 70.134 63.4671 70.3045C63.4812 70.3654 63.5015 70.4325 63.5156 70.5014C63.5624 70.6983 63.6031 70.8953 63.6437 71.0981L63.7468 71.5873C63.7592 71.6748 63.7734 71.7561 63.7874 71.8451C63.8281 72.0623 63.8609 72.2731 63.8953 72.4903C63.9031 72.5514 63.9154 72.6043 63.9154 72.667C63.9499 72.8967 63.9842 73.1278 64.0045 73.3592C64.0374 73.6231 64.0656 73.889 64.0859 74.1592C64.1062 74.4514 64.1187 74.7498 64.1328 75.0418C64.1468 75.3611 64.1531 75.6875 64.1531 76.0061Z" fill="#F2B7A2"/>
<path d="M45.5949 51.4336C44.0202 52.2958 42.2146 52.7911 40.287 52.7911C38.359 52.7911 36.5534 52.2956 34.9785 51.4336C35.4809 50.7547 35.834 49.974 36.0171 49.1392C37.368 49.5464 38.8068 49.7705 40.2868 49.7705C41.7734 49.7705 43.2124 49.5464 44.5632 49.1323C44.7398 49.9673 45.0995 50.7479 45.5949 51.4336Z" fill="#DA795C"/>
<path d="M64.1537 76.0061V76.875H16.4204V76.0061C16.4204 75.687 16.4273 75.3612 16.4407 75.0422C16.4545 74.7503 16.4681 74.4517 16.4884 74.1598C16.5088 73.8883 16.536 73.6236 16.5698 73.3587C16.5903 73.128 16.6242 72.8973 16.6579 72.6664C16.6579 72.6051 16.6715 72.5509 16.6784 72.4898C16.7124 72.2726 16.7463 72.0623 16.7868 71.845C16.8004 71.7569 16.814 71.6753 16.8276 71.5872C16.8617 71.4242 16.8957 71.2612 16.9295 71.0984C16.9701 70.8947 17.0109 70.698 17.0584 70.5011C17.072 70.4331 17.0923 70.3653 17.106 70.3042C17.1467 70.1345 17.1942 69.958 17.2418 69.7883C17.2824 69.6389 17.3232 69.4897 17.3638 69.3403C17.6829 68.2339 18.0834 67.1683 18.5518 66.1431C18.6671 65.892 18.7895 65.6408 18.9117 65.3964C19.0337 65.1522 19.1559 64.9078 19.2918 64.6634C19.414 64.4326 19.5429 64.2019 19.6787 63.9778C19.6787 63.9642 19.6856 63.9506 19.6992 63.9437C19.8348 63.713 19.9774 63.4823 20.1199 63.2514C20.2353 63.0748 20.3507 62.8984 20.4662 62.7219C20.9618 61.982 21.4981 61.2692 22.0749 60.5972C22.2379 60.3934 22.4143 60.1967 22.5909 60.0067C23.1679 59.3686 23.7788 58.7576 24.4235 58.1875C24.6476 57.9906 24.8717 57.7936 25.1023 57.6037C25.3332 57.4136 25.5707 57.2303 25.8084 57.047C26.046 56.8637 26.2835 56.6872 26.5279 56.5175C26.7721 56.3409 27.0234 56.1712 27.2745 56.0083C27.5188 55.8523 27.7634 55.6961 28.0143 55.5469C28.0279 55.54 28.0415 55.5331 28.0484 55.5264C28.2453 55.4111 28.4354 55.2956 28.632 55.1937C28.9918 54.9833 29.3582 54.7933 29.7248 54.61C31.4354 58.7575 35.522 61.6764 40.2871 61.6764C45.059 61.6764 49.1385 58.7575 50.8493 54.61C51.2159 54.7934 51.5823 54.9834 51.9421 55.1937C52.139 55.2956 52.329 55.4111 52.5259 55.5264C52.5326 55.5331 52.5462 55.54 52.5598 55.5469C52.8109 55.6961 53.0554 55.8523 53.2995 56.0083C53.5507 56.1712 53.8018 56.3409 54.0462 56.5175C54.2906 56.6872 54.5281 56.8637 54.7657 57.047C55.0032 57.2303 55.2409 57.4136 55.4717 57.6037C55.7024 57.7937 55.9265 57.9908 56.1504 58.1875C56.7953 58.7575 57.4062 59.3686 57.9831 60.0067C58.1598 60.1967 58.336 60.3936 58.4993 60.5972C59.076 61.2692 59.6123 61.9819 60.1079 62.7219C60.2232 62.8984 60.3388 63.0748 60.454 63.2514C60.5965 63.4823 60.7392 63.713 60.8751 63.9437C60.8885 63.9506 60.8952 63.9642 60.8952 63.9778C61.031 64.2019 61.1601 64.4326 61.2823 64.6634C61.4181 64.9078 61.5403 65.1522 61.6626 65.3964C61.7846 65.6408 61.9068 65.892 62.0223 66.1431C62.4906 67.1683 62.8913 68.2339 63.2103 69.3403C63.2512 69.4897 63.2917 69.6389 63.3323 69.7883C63.3799 69.958 63.4273 70.1345 63.4681 70.3042C63.4817 70.3653 63.5021 70.4331 63.5157 70.5011C63.5634 70.698 63.6038 70.8948 63.6446 71.0984L63.7465 71.5872C63.7601 71.6753 63.7737 71.7569 63.7871 71.845C63.8279 72.0623 63.8618 72.2726 63.8959 72.4898C63.9026 72.5509 63.9162 72.6051 63.9162 72.6664C63.9499 72.8973 63.984 73.128 64.0042 73.3587C64.0384 73.6236 64.0656 73.8883 64.0857 74.1598C64.106 74.4517 64.1195 74.7503 64.1332 75.0422C64.1468 75.3614 64.1537 75.687 64.1537 76.0061Z" fill="#E67445"/>
<path d="M58.1336 34.8372H55.0659C54.5004 34.8372 54.042 34.3787 54.042 33.8133V27.0658C54.042 26.5003 54.5004 26.0419 55.0659 26.0419H58.1336C58.699 26.0419 59.1575 26.5003 59.1575 27.0658V33.8133C59.1575 34.3787 58.699 34.8372 58.1336 34.8372Z" fill="#EBC847"/>
<path d="M25.436 34.8372H22.3683C21.8028 34.8372 21.3442 34.3787 21.3442 33.8133V27.0658C21.3442 26.5003 21.8028 26.0419 22.3683 26.0419H25.436C26.0014 26.0419 26.4599 26.5003 26.4599 27.0658V33.8133C26.4599 34.3787 26.0016 34.8372 25.436 34.8372Z" fill="#EBC847"/>
<path d="M56.6 25.0178V35.8611C56.6 36.4283 56.1413 36.885 55.5761 36.885H44.4206C43.9561 36.885 43.5389 36.575 43.4313 36.1231C43.088 34.6844 41.7939 33.6147 40.2502 33.6147C38.7064 33.6147 37.4123 34.6845 37.0691 36.1231C36.9613 36.575 36.5442 36.885 36.0795 36.885H24.9263C24.3611 36.885 23.9023 36.4283 23.9023 35.8611V25.0178C23.9023 24.4523 24.3608 23.9939 24.9263 23.9939H55.5761C56.1416 23.9941 56.6 24.4523 56.6 25.0178Z" fill="#4E73DE"/>
<path d="M54.5522 26.0417V34.8372H45.1608C45.083 34.6509 44.9969 34.4706 44.9008 34.2965C44.6818 33.8993 44.4135 33.5368 44.1063 33.2132C43.6332 32.7156 43.066 32.3143 42.4372 32.0337C41.7675 31.7328 41.0263 31.5668 40.2502 31.5668C38.0671 31.5668 36.1524 32.8754 35.3394 34.8372H25.9502V26.0417H54.5522Z" fill="#8CABFF"/>
<path d="M38.0977 26.0417L29.3022 34.8372H26.4536L35.2491 26.0417H38.0977Z" fill="#D9E5FF"/>
<path d="M41.397 26.0417L32.6017 34.8372H31.1782L39.9737 26.0417H41.397Z" fill="#D9E5FF"/>
<path d="M51.2775 26.0417L44.1061 33.2131C43.6329 32.7154 43.0658 32.3142 42.437 32.0336L48.4309 26.0417H51.2775Z" fill="#D9E5FF"/>
<path d="M54.5523 26.0417V26.0683L45.7834 34.837H45.1609C45.0831 34.6508 44.997 34.4705 44.9009 34.2964L53.1535 26.0416H54.5523V26.0417Z" fill="#D9E5FF"/>
<g opacity="0.47">
<path d="M64.1535 49.1323C71.0003 51.202 75.2808 54.15 75.2808 57.4217C75.2808 63.6842 59.5969 68.7609 40.25 68.7609C20.9031 68.7609 5.21924 63.6842 5.21924 57.4217C5.21924 54.1501 9.49955 51.202 16.3463 49.1323V25.3254C9.49955 27.3951 5.21924 30.3429 5.21924 33.6147C5.21924 39.8772 20.9031 44.9539 40.25 44.9539C59.5969 44.9539 75.2808 39.8772 75.2808 33.6147C75.2808 30.3431 71.0003 27.395 64.1535 25.3254V49.1323Z" fill="#4E73DE"/>
<path d="M75.2799 33.6147V57.4228C75.2799 63.685 59.5977 68.7616 40.2499 68.7616C20.9021 68.7616 5.21973 63.685 5.21973 57.4228V33.6147C5.21973 36.8852 9.49988 39.8341 16.3457 41.9022C22.6058 43.7944 31.0102 44.9534 40.2499 44.9534C49.4896 44.9534 57.8939 43.7944 64.1541 41.9022C71 39.8341 75.2799 36.885 75.2799 33.6147Z" fill="#94A9E3"/>
</g>
<path d="M60.5637 51.4556H54.5522C54.1207 51.4556 53.771 51.1057 53.771 50.6743C53.771 50.2428 54.1207 49.8931 54.5522 49.8931H60.5637C60.9952 49.8931 61.3449 50.2428 61.3449 50.6743C61.3449 51.1057 60.9952 51.4556 60.5637 51.4556Z" fill="white"/>
<path d="M64.1537 54.3917H54.5522C54.1207 54.3917 53.771 54.042 53.771 53.6104C53.771 53.179 54.1207 52.8292 54.5522 52.8292H64.1537C64.5851 52.8292 64.9349 53.179 64.9349 53.6104C64.9349 54.042 64.5851 54.3917 64.1537 54.3917Z" fill="white"/>
<path d="M26.4599 59.6348H19.9546C19.5232 59.6348 19.1733 59.285 19.1733 58.8536C19.1733 58.4222 19.5232 58.0723 19.9546 58.0723H26.4599C26.8915 58.0723 27.2412 58.4222 27.2412 58.8536C27.2412 59.285 26.8915 59.6348 26.4599 59.6348Z" fill="#2BABAA"/>
<path d="M26.4599 62.571H19.9546C19.5232 62.571 19.1733 62.2212 19.1733 61.7898C19.1733 61.3582 19.5232 61.0085 19.9546 61.0085H26.4599C26.8915 61.0085 27.2412 61.3582 27.2412 61.7898C27.2412 62.2212 26.8915 62.571 26.4599 62.571Z" fill="#2BABAA"/>
<path d="M33.3755 52.9192C32.9441 52.9192 32.5942 52.5694 32.5942 52.138V49.7467C32.5942 49.3153 32.9441 48.9655 33.3755 48.9655H35.7588C36.1903 48.9655 36.54 49.3153 36.54 49.7467C36.54 50.1783 36.1903 50.528 35.7588 50.528H34.1567V52.138C34.1567 52.5692 33.8071 52.9192 33.3755 52.9192Z" fill="#4E73DE"/>
<path d="M35.7891 64.353H33.3755C32.9441 64.353 32.5942 64.0033 32.5942 63.5717V61.1761C32.5942 60.7445 32.9441 60.3948 33.3755 60.3948C33.8071 60.3948 34.1567 60.7445 34.1567 61.1761V62.7905H35.7891C36.2206 62.7905 36.5703 63.1401 36.5703 63.5717C36.5703 64.0033 36.2206 64.353 35.7891 64.353Z" fill="#4E73DE"/>
<path d="M47.2003 64.353H44.8091C44.3777 64.353 44.0278 64.0033 44.0278 63.5717C44.0278 63.1401 44.3777 62.7905 44.8091 62.7905H46.4191V61.1761C46.4191 60.7445 46.7689 60.3948 47.2003 60.3948C47.6317 60.3948 47.9816 60.7445 47.9816 61.1761V63.5717C47.9816 64.0033 47.6317 64.353 47.2003 64.353Z" fill="#4E73DE"/>
<path d="M47.2005 52.9192C46.7691 52.9192 46.4193 52.5694 46.4193 52.138V50.528H44.7905C44.3591 50.528 44.0093 50.1783 44.0093 49.7467C44.0093 49.3153 44.3591 48.9655 44.7905 48.9655H47.2005C47.6319 48.9655 47.9818 49.3153 47.9818 49.7467V52.138C47.9818 52.5692 47.6319 52.9192 47.2005 52.9192Z" fill="#4E73DE"/>
<path d="M40.295 56.6773L40.2822 61.1761L36.3672 58.9158L36.3798 54.4172L40.295 56.6773Z" fill="#678FFF"/>
<path d="M40.295 56.6773L44.2089 54.4028L44.1963 58.9015L40.2822 61.1761L40.295 56.6773Z" fill="#8CABFF"/>
<path d="M36.3799 54.4171L40.2939 52.1425L44.2089 54.4028L40.295 56.6773L36.3799 54.4171Z" fill="#7DA0EF"/>
</svg>
