<svg width="67" height="74" viewBox="0 0 67 74" fill="none" xmlns="http://www.w3.org/2000/svg">
<path d="M44.1058 71.8517H22.894L24.5258 58.7675H42.4742L44.1058 71.8517Z" fill="#2E3547"/>
<path d="M47.471 73.875H19.5288C18.9701 73.875 18.5171 73.4222 18.5171 72.8633C18.5171 72.3045 18.9699 71.8516 19.5288 71.8516H47.471C48.0297 71.8516 48.4827 72.3044 48.4827 72.8633C48.4827 73.4222 48.0297 73.875 47.471 73.875Z" fill="#3E465F"/>
<path d="M66.1172 20.8281V61.4236C66.1172 62.5672 65.1891 63.4954 64.0438 63.4954H2.95625C1.81094 63.4954 0.882812 62.5673 0.882812 61.4236V20.8281C0.882812 19.6843 1.81078 18.7562 2.95625 18.7562H64.0438C65.1891 18.7562 66.1172 19.6843 66.1172 20.8281Z" fill="#3E465F"/>
<path d="M63.352 21.5197H3.64746V57.4382H63.352V21.5197Z" fill="white"/>
<path opacity="0.2" d="M3.64746 21.5197V57.4382H63.352V21.5197H3.64746ZM61.9701 56.0562H5.02949V22.9017H61.9701V56.0562Z" fill="#21315F"/>
<path d="M33.4999 61.9181C34.2632 61.9181 34.8821 61.2993 34.8821 60.5359C34.8821 59.7726 34.2632 59.1537 33.4999 59.1537C32.7365 59.1537 32.1177 59.7726 32.1177 60.5359C32.1177 61.2993 32.7365 61.9181 33.4999 61.9181Z" fill="#21315F"/>
<path opacity="0.2" d="M55.3032 18.7562V50.9328C55.3032 52.8312 53.761 54.3734 51.8624 54.3734H15.1376C13.2391 54.3734 11.6968 52.8314 11.6968 50.9328V18.7562H55.3032Z" fill="#21315F"/>
<path d="M52.9602 10.5605V50.9333C52.9602 51.5389 52.4686 52.0303 51.8632 52.0303H15.1371C14.5314 52.0303 14.04 51.5387 14.04 50.9333V1.22203C14.04 0.616406 14.5316 0.125 15.1371 0.125H42.5247L52.9602 10.5605Z" fill="#E6EBF2"/>
<path d="M52.9604 10.5605H43.6219C43.016 10.5605 42.5249 10.0692 42.5249 9.46344V0.125L52.9604 10.5605Z" fill="#B4C3D9"/>
<path d="M25.3605 18.4256H19.2208C18.5862 18.4256 18.0718 17.9112 18.0718 17.2765V11.137C18.0718 10.5023 18.5863 9.98779 19.2208 9.98779H25.3605C25.9952 9.98779 26.5096 10.5023 26.5096 11.137V17.2765C26.5096 17.9112 25.9952 18.4256 25.3605 18.4256Z" fill="white"/>
<path d="M23.0019 16.4476C22.8147 16.4476 22.627 16.3806 22.4778 16.2458L20.0628 14.0608C19.7428 13.7712 19.7181 13.2773 20.0075 12.9573C20.2969 12.6376 20.7908 12.6125 21.1111 12.9022L22.975 14.5884L27.1645 10.399C27.4694 10.094 27.9644 10.094 28.2692 10.399C28.5744 10.7042 28.5744 11.1989 28.2692 11.5039L23.5544 16.2187C23.4022 16.3709 23.2022 16.4476 23.0019 16.4476Z" fill="#2BABAA"/>
<path d="M40.3433 12.9553H32.1182C31.6866 12.9553 31.3369 12.6055 31.3369 12.1741C31.3369 11.7427 31.6866 11.3928 32.1182 11.3928H40.3433C40.7749 11.3928 41.1246 11.7427 41.1246 12.1741C41.1246 12.6055 40.7749 12.9553 40.3433 12.9553Z" fill="#B4C3D9"/>
<path d="M48.5686 16.8212H32.1182C31.6866 16.8212 31.3369 16.4714 31.3369 16.04C31.3369 15.6086 31.6866 15.2587 32.1182 15.2587H48.5685C49 15.2587 49.3497 15.6086 49.3497 16.04C49.3497 16.4714 49 16.8212 48.5686 16.8212Z" fill="#B4C3D9"/>
<path d="M25.3605 31.3395H19.2208C18.5862 31.3395 18.0718 30.825 18.0718 30.1904V24.0509C18.0718 23.4162 18.5863 22.9019 19.2208 22.9019H25.3605C25.9952 22.9019 26.5096 23.4164 26.5096 24.0509V30.1904C26.5096 30.825 25.9952 31.3395 25.3605 31.3395Z" fill="white"/>
<path d="M23.0019 29.3616C22.8147 29.3616 22.627 29.2945 22.4778 29.1597L20.0628 26.9747C19.7428 26.6852 19.7181 26.1913 20.0075 25.8713C20.2969 25.5516 20.7908 25.5264 21.1111 25.8161L22.975 27.5024L27.1645 23.313C27.4694 23.008 27.9644 23.008 28.2692 23.313C28.5744 23.6181 28.5744 24.1128 28.2692 24.4178L23.5544 29.1327C23.4022 29.285 23.2022 29.3616 23.0019 29.3616Z" fill="#2BABAA"/>
<path d="M40.3433 25.8694H32.1182C31.6866 25.8694 31.3369 25.5195 31.3369 25.0881C31.3369 24.6567 31.6866 24.3069 32.1182 24.3069H40.3433C40.7749 24.3069 41.1246 24.6567 41.1246 25.0881C41.1246 25.5195 40.7749 25.8694 40.3433 25.8694Z" fill="#B4C3D9"/>
<path d="M48.5686 29.7353H32.1182C31.6866 29.7353 31.3369 29.3854 31.3369 28.954C31.3369 28.5226 31.6866 28.1728 32.1182 28.1728H48.5685C49 28.1728 49.3497 28.5226 49.3497 28.954C49.3497 29.3854 49 29.7353 48.5686 29.7353Z" fill="#B4C3D9"/>
<path d="M25.3605 44.2536H19.2208C18.5862 44.2536 18.0718 43.7391 18.0718 43.1045V36.965C18.0718 36.3302 18.5863 35.8158 19.2208 35.8158H25.3605C25.9952 35.8158 26.5096 36.3302 26.5096 36.965V43.1045C26.5096 43.7391 25.9952 44.2536 25.3605 44.2536Z" fill="white"/>
<path d="M23.0019 42.2756C22.8147 42.2756 22.627 42.2086 22.4778 42.0736L20.0628 39.8887C19.7428 39.5992 19.7181 39.1051 20.0075 38.7853C20.2969 38.4655 20.7908 38.4404 21.1111 38.73L22.975 40.4164L27.1645 36.2269C27.4694 35.9219 27.9644 35.9219 28.2692 36.2269C28.5744 36.532 28.5744 37.0267 28.2692 37.3317L23.5544 42.0465C23.4022 42.1989 23.2022 42.2756 23.0019 42.2756Z" fill="#2BABAA"/>
<path d="M40.3433 38.7833H32.1182C31.6866 38.7833 31.3369 38.4334 31.3369 38.002C31.3369 37.5706 31.6866 37.2208 32.1182 37.2208H40.3433C40.7749 37.2208 41.1246 37.5706 41.1246 38.002C41.1246 38.4334 40.7749 38.7833 40.3433 38.7833Z" fill="#B4C3D9"/>
<path d="M48.5686 42.6492H32.1182C31.6866 42.6492 31.3369 42.2994 31.3369 41.868C31.3369 41.4366 31.6866 41.0867 32.1182 41.0867H48.5685C49 41.0867 49.3497 41.4366 49.3497 41.868C49.3497 42.2994 49 42.6492 48.5686 42.6492Z" fill="#B4C3D9"/>
</svg>
