<svg width="22" height="22" viewBox="0 0 22 22" fill="none" xmlns="http://www.w3.org/2000/svg">
<path fillRule="evenodd" clipRule="evenodd" d="M10.9999 3.14287C8.83017 3.14287 7.07129 4.90175 7.07129 7.07144C7.07129 9.24113 8.83017 11 10.9999 11C13.1696 11 14.9284 9.24113 14.9284 7.07144C14.9284 4.90175 13.1696 3.14287 10.9999 3.14287ZM5.49986 7.07144C5.49986 4.03388 7.96229 1.57144 10.9999 1.57144C14.0374 1.57144 16.4999 4.03388 16.4999 7.07144C16.4999 10.109 14.0374 12.5714 10.9999 12.5714C7.96229 12.5714 5.49986 10.109 5.49986 7.07144Z" fill="#3366A5"/>
<path fillRule="evenodd" clipRule="evenodd" d="M7.4155 11.6485C8.55377 11.2199 9.77154 11 10.9999 11C12.2282 11 13.446 11.2199 14.5842 11.6485C15.7225 12.0772 16.7614 12.7071 17.6398 13.5056C18.5184 14.3043 19.2197 15.2566 19.6998 16.3103C20.18 17.3642 20.4284 18.4969 20.4284 19.6429C20.4284 20.0768 20.0767 20.4286 19.6427 20.4286C19.2088 20.4286 18.857 20.0768 18.857 19.6429C18.857 18.7252 18.6583 17.8144 18.2698 16.9618C17.8812 16.109 17.3093 15.3289 16.5828 14.6684C15.856 14.0078 14.9893 13.4802 14.0305 13.1191C13.0715 12.758 12.0415 12.5714 10.9999 12.5714C9.95819 12.5714 8.9282 12.758 7.96927 13.1191C7.01039 13.4802 6.14369 14.0078 5.41697 14.6684C4.69039 15.3289 4.11849 16.109 3.7299 16.9618C3.34142 17.8144 3.14272 18.7252 3.14272 19.6429C3.14272 20.0768 2.79094 20.4286 2.357 20.4286C1.92307 20.4286 1.57129 20.0768 1.57129 19.6429C1.57129 18.4969 1.81969 17.3642 2.29991 16.3103C2.78 15.2566 3.48135 14.3043 4.35991 13.5056C5.23831 12.7071 6.27718 12.0772 7.4155 11.6485Z" fill="#3366A5"/>
</svg>
