<svg width="22" height="22" viewBox="0 0 22 22" fill="none" xmlns="http://www.w3.org/2000/svg">
<g clip-path="url(#clip0_307_731)">
<path d="M11.0003 5.49996C14.4745 5.49996 17.5728 7.45246 19.0853 10.5416C17.5728 13.6308 14.4745 15.5833 11.0003 15.5833C7.52616 15.5833 4.42783 13.6308 2.91533 10.5416C4.42783 7.45246 7.52616 5.49996 11.0003 5.49996ZM11.0003 3.66663C6.41699 3.66663 2.50283 6.51746 0.916992 10.5416C2.50283 14.5658 6.41699 17.4166 11.0003 17.4166C15.5837 17.4166 19.4978 14.5658 21.0837 10.5416C19.4978 6.51746 15.5837 3.66663 11.0003 3.66663ZM11.0003 8.24996C12.2653 8.24996 13.292 9.27663 13.292 10.5416C13.292 11.8066 12.2653 12.8333 11.0003 12.8333C9.73533 12.8333 8.70866 11.8066 8.70866 10.5416C8.70866 9.27663 9.73533 8.24996 11.0003 8.24996ZM11.0003 6.41663C8.72699 6.41663 6.87533 8.26829 6.87533 10.5416C6.87533 12.815 8.72699 14.6666 11.0003 14.6666C13.2737 14.6666 15.1253 12.815 15.1253 10.5416C15.1253 8.26829 13.2737 6.41663 11.0003 6.41663Z" fill="#434343"/>
</g>
<defs>
<clipPath id="clip0_307_731">
<rect width="22" height="22" fill="white"/>
</clipPath>
</defs>
</svg>
